HIERARCHY
ROOT Hips
{
	OFFSET 0.000000 0.000000 0.000000
	CHANNELS 6 Xposition Yposition Zposition Zrotation Yrotation Xrotation 
	JOINT LHipJoint
	{
		OFFSET 0.000000 0.000000 0.000000
		CHANNELS 3 Zrotation Yrotation Xrotation
		JOINT LeftUpLeg
		{
			OFFSET 1.363060 -1.794630 0.839290
			CHANNELS 3 Zrotation Yrotation Xrotation
			JOINT LeftLeg
			{
				OFFSET 2.448110 -6.726130 0.000000
				CHANNELS 3 Zrotation Yrotation Xrotation
				JOINT LeftFoot
				{
					OFFSET 2.562200 -7.039590 0.000000
					CHANNELS 3 Zrotation Yrotation Xrotation
					JOINT LeftToeBase
					{
						OFFSET 0.157640 -0.433110 2.322550
						CHANNELS 3 Zrotation Yrotation Xrotation
						End Site
						{
							OFFSET 0.000000 0.000000 0.000000
						}
					}
				}
			}
		}
	}
	JOINT RHipJoint
	{
		OFFSET 0.000000 0.000000 0.000000
		CHANNELS 3 Zrotation Yrotation Xrotation
		JOINT RightUpLeg
		{
			OFFSET -1.305520 -1.794630 0.839290
			CHANNELS 3 Zrotation Yrotation Xrotation
			JOINT RightLeg
			{
				OFFSET -2.542530 -6.985550 0.000000
				CHANNELS 3 Zrotation Yrotation Xrotation
				JOINT RightFoot
				{
					OFFSET -2.568260 -7.056230 0.000000
					CHANNELS 3 Zrotation Yrotation Xrotation
					JOINT RightToeBase
					{
						OFFSET -0.164730 -0.452590 2.363150
						CHANNELS 3 Zrotation Yrotation Xrotation
						End Site
						{
							OFFSET 0.000000 0.000000 0.000000
						}
					}
				}
			}
		}
	}
	JOINT LowerBack
	{
		OFFSET 0.000000 0.000000 0.000000
		CHANNELS 3 Zrotation Yrotation Xrotation
		JOINT Spine
		{
			OFFSET 0.028270 2.035590 -0.193380
			CHANNELS 3 Zrotation Yrotation Xrotation
			JOINT Spine1
			{
				OFFSET 0.056720 2.048850 -0.042750
				CHANNELS 3 Zrotation Yrotation Xrotation
				JOINT Neck
				{
					OFFSET 0.000000 0.000000 0.000000
					CHANNELS 3 Zrotation Yrotation Xrotation
					JOINT Neck1
					{
						OFFSET -0.054170 1.746240 0.172020
						CHANNELS 3 Zrotation Yrotation Xrotation
						JOINT Head
						{
							OFFSET 0.104070 1.761360 -0.123970
							CHANNELS 3 Zrotation Yrotation Xrotation
							End Site
							{
								OFFSET 0.000000 0.000000 0.000000
							}
						}
					}
				}
				JOINT LeftShoulder
				{
					OFFSET 0.000000 0.000000 0.000000
					CHANNELS 3 Zrotation Yrotation Xrotation
					JOINT LeftArm
					{
						OFFSET 3.362410 1.200890 -0.311210
						CHANNELS 3 Zrotation Yrotation Xrotation
						JOINT LeftForeArm
						{
							OFFSET 4.983000 -0.000000 -0.000000
							CHANNELS 3 Zrotation Yrotation Xrotation
							JOINT LeftHand
							{
								OFFSET 3.483560 -0.000000 -0.000000
								CHANNELS 3 Zrotation Yrotation Xrotation
								JOINT LeftFingerBase
								{
									OFFSET 0.000000 0.000000 0.000000
									CHANNELS 3 Zrotation Yrotation Xrotation
									JOINT LeftHandIndex1
									{
										OFFSET 0.715260 -0.000000 -0.000000
										CHANNELS 3 Zrotation Yrotation Xrotation
										End Site
										{
											OFFSET 0.000000 0.000000 0.000000
										}
									}
								}
								JOINT LThumb
								{
									OFFSET 0.000000 0.000000 0.000000
									CHANNELS 3 Zrotation Yrotation Xrotation
									End Site
									{
										OFFSET 0.000000 0.000000 0.000000
									}
								}
							}
						}
					}
				}
				JOINT RightShoulder
				{
					OFFSET 0.000000 0.000000 0.000000
					CHANNELS 3 Zrotation Yrotation Xrotation
					JOINT RightArm
					{
						OFFSET -3.136600 1.374050 -0.404650
						CHANNELS 3 Zrotation Yrotation Xrotation
						JOINT RightForeArm
						{
							OFFSET -5.241900 -0.000000 -0.000000
							CHANNELS 3 Zrotation Yrotation Xrotation
							JOINT RightHand
							{
								OFFSET -3.444170 -0.000000 -0.000000
								CHANNELS 3 Zrotation Yrotation Xrotation
								JOINT RightFingerBase
								{
									OFFSET 0.000000 0.000000 0.000000
									CHANNELS 3 Zrotation Yrotation Xrotation
									JOINT RightHandIndex1
									{
										OFFSET -0.622530 -0.000000 -0.000000
										CHANNELS 3 Zrotation Yrotation Xrotation
										End Site
										{
											OFFSET 0.000000 0.000000 0.000000
										}
									}
								}
								JOINT RThumb
								{
									OFFSET 0.000000 0.000000 0.000000
									CHANNELS 3 Zrotation Yrotation Xrotation
									End Site
									{
										OFFSET 0.000000 0.000000 0.000000
									}
								}
							}
						}
					}
				}
			}
		}
	}
}
MOTION
Frames: 10
Frame Time: 0.008333
1.175761 18.206099 -6.918737 1.969465 0.004110 1.928973 -3.602691 5.185105 5.883436 -19.049686 -6.419032 -8.754686 -0.983710 5.072868 20.621397 0.560148 -0.264942 3.592747 0.008291 0.570912 1.568826 2.379365 -3.111939 2.220559 13.922347 10.798949 -31.949395 -4.995483 -13.188449 41.692385 4.420848 -14.884378 4.795364 -0.080636 -1.441279 3.969364 -2.519930 -0.924497 6.388359 2.312217 -1.142577 1.913170 3.098178 -0.836149 -7.000777 -5.617134 -3.822184 -14.881113 3.857816 -4.205433 17.121530 0.038966 -1.709223 9.227651 -7.446073 2.031609 -1.132936 -76.553080 -4.496062 27.555545 12.652786 -21.810550 -2.748547 -0.977293 -1.333530 -5.762221 28.745113 21.361059 12.390920 -7.125000 0.000000 0.000000 0.971452 55.519125 0.241575 11.789346 -1.662076 -2.453542 74.215521 0.328577 8.273573 -8.415961 19.152858 -1.905511 1.112850 -0.680837 7.360665 -16.055213 19.527230 -6.047612 7.125000 0.000000 0.000000 7.167477 -9.291364 5.964293
1.170993 18.206553 -6.828832 2.059292 0.046851 1.958994 -3.642830 5.218573 5.951393 -19.091642 -6.460463 -8.362099 -1.043271 4.934719 20.267649 0.526426 -0.172279 3.572026 0.013674 0.745336 2.048479 2.459966 -3.081160 2.142876 13.668680 10.869220 -32.070460 -4.676105 -12.894346 40.293852 4.611395 -15.591432 6.264888 -0.020308 -0.032036 0.090092 -2.584815 -0.949779 6.509496 2.262103 -1.180663 1.898781 3.078957 -0.861815 -7.078775 -5.551538 -3.853040 -14.977058 3.890324 -4.258432 17.223651 0.035097 -1.721670 9.280354 -7.441523 2.024922 -1.130733 -76.395141 -4.712417 27.644479 12.736273 -21.933133 -2.782769 -0.956584 -1.372611 -5.799492 28.434406 22.299774 12.719360 -7.125000 0.000000 0.000000 0.374956 56.518574 0.099726 11.777863 -1.660640 -2.459875 74.314702 0.253499 8.564774 -8.532642 19.341677 -1.952294 1.113296 -0.652800 7.079746 -16.058518 19.272799 -5.967436 7.125000 0.000000 0.000000 7.155030 -9.573493 5.912880
1.167445 18.205096 -6.737952 2.221330 0.096759 2.024971 -3.676399 5.240525 6.015830 -19.226055 -6.357968 -8.041809 -1.089307 4.813313 19.978917 0.532574 -0.207204 3.526268 0.020783 0.917592 2.522308 2.533896 -3.044116 2.062632 13.318338 10.932433 -32.197108 -4.326470 -12.572826 38.852911 4.745449 -16.087600 7.204031 -0.002999 0.355028 -0.975456 -2.705561 -0.966972 6.554010 2.189118 -1.213207 1.898130 3.065980 -0.885403 -7.095678 -5.529512 -3.909604 -15.077208 3.963287 -4.341336 17.294989 0.048380 -1.747573 9.324020 -7.440119 2.016238 -1.128736 -76.194817 -5.022436 27.912379 12.786349 -22.012302 -2.804336 -0.953171 -1.410194 -5.842954 28.502844 23.168357 13.202405 -7.125000 0.000000 0.000000 0.210821 57.518666 0.064722 11.769799 -1.656005 -2.459235 74.408776 0.266163 8.678247 -8.596423 19.439537 -1.977790 1.111919 -0.637581 6.886283 -16.028228 19.138327 -5.913048 7.125000 0.000000 0.000000 7.170620 -9.725681 5.903803
1.164381 18.202883 -6.646685 2.411951 0.149504 2.105182 -3.707367 5.257919 6.078872 -19.397065 -6.198501 -7.750137 -1.129990 4.698535 19.715920 0.554503 -0.292632 3.470599 0.028577 1.088988 2.993831 2.605186 -3.004594 1.981373 12.929729 10.992851 -32.325965 -3.964858 -12.240453 37.395183 4.857141 -16.500293 7.933230 -0.002719 0.337479 -0.927238 -2.848419 -0.980962 6.568194 2.107078 -1.243556 1.902917 3.055475 -0.908168 -7.088398 -5.524733 -3.976345 -15.179023 4.052264 -4.436079 17.354143 0.068452 -1.778803 9.364108 -7.439961 2.006763 -1.126822 -75.977716 -5.369530 28.251120 12.823200 -22.074288 -2.820893 -0.956605 -1.447184 -5.888866 28.721361 24.009179 13.746646 -7.125000 0.000000 0.000000 0.217829 58.519013 0.072010 11.763089 -1.650102 -2.455835 74.500827 0.313558 8.721369 -8.639265 19.501394 -1.994859 1.109820 -0.627436 6.727439 -15.984640 19.051339 -5.868867 7.125000 0.000000 0.000000 7.197308 -9.826433 5.911484
1.160257 18.195375 -6.553671 2.481937 0.148920 2.209342 -3.743718 5.269086 6.130453 -19.413502 -6.071136 -7.573556 -1.172941 4.596150 19.457311 0.582435 -0.383739 3.503708 0.021778 0.940510 2.585228 2.690176 -2.969415 1.909202 12.656297 11.151528 -32.361598 -3.593204 -11.862531 35.927520 4.990585 -16.854873 8.084781 -0.002125 0.026572 -0.073006 -2.950952 -0.999996 6.479270 2.125678 -1.271438 1.926428 3.122531 -0.927694 -7.003949 -5.610565 -3.989785 -15.183459 4.133918 -4.443475 17.294110 0.109183 -1.781737 9.345461 -7.439492 1.993306 -1.124843 -75.888925 -5.682080 28.433038 12.896776 -22.182727 -2.852291 -0.966469 -1.461685 -5.955511 29.057613 24.325564 14.095438 -7.125000 0.000000 0.000000 0.525047 58.956284 0.181548 11.765003 -1.646241 -2.446874 74.485349 0.473915 8.578512 -8.614092 19.452416 -1.986492 1.105633 -0.625953 6.809699 -15.941693 18.965047 -5.826831 7.125000 0.000000 0.000000 7.223263 -9.922164 5.919061
1.155523 18.189730 -6.460658 2.531114 0.154660 2.306173 -3.777387 5.288147 6.189896 -19.403984 -5.936382 -7.348284 -1.213390 4.495588 19.205318 0.609973 -0.468731 3.488878 0.013845 0.723211 1.987524 2.777820 -2.938869 1.838465 12.398363 11.324493 -32.361171 -3.220093 -11.474787 34.453528 5.128445 -17.201709 8.152464 -0.003290 -0.314260 0.863552 -3.040796 -1.025121 6.397554 2.155558 -1.305715 1.951745 3.193790 -0.950584 -6.923760 -5.696536 -3.998897 -15.182917 4.207913 -4.444288 17.227175 0.147887 -1.782743 9.323406 -7.438540 1.979462 -1.122791 -75.815341 -5.978961 28.582982 12.978066 -22.300884 -2.886767 -0.973927 -1.475217 -6.040831 29.348921 24.616588 14.406510 -7.125000 0.000000 0.000000 0.784323 59.353959 0.274657 11.766939 -1.643335 -2.438626 74.464832 0.631244 8.455859 -8.593408 19.411107 -1.980212 1.101400 -0.622008 6.900244 -15.905237 18.842271 -5.775861 7.125000 0.000000 0.000000 7.243501 -10.057074 5.916052
1.147747 18.196882 -6.368369 2.511190 0.218336 2.351400 -3.793551 5.354755 6.298848 -19.309953 -5.746335 -6.798240 -1.238644 4.400337 18.989229 0.632804 -0.516535 3.164365 0.005435 0.244904 0.673147 2.874965 -2.932944 1.772173 12.181492 11.538577 -32.193471 -2.842801 -11.049743 32.947538 5.282549 -17.528249 7.979166 -0.014616 -0.705271 1.938579 -3.074866 -1.082898 6.399241 2.208434 -1.377451 1.979665 3.257176 -0.993977 -6.899521 -5.746112 -4.005215 -15.193958 4.241249 -4.443419 17.169819 0.166557 -1.784369 9.306025 -7.434954 1.965045 -1.120346 -75.775779 -6.200707 28.615035 13.088244 -22.455366 -2.932703 -0.965028 -1.492449 -6.224088 29.335730 24.978284 14.582784 -7.125000 0.000000 0.000000 0.647127 59.757024 0.232158 11.765467 -1.645043 -2.436725 74.459720 0.724953 8.524687 -8.626228 19.458999 -1.996264 1.097761 -0.600482 6.939066 -15.905512 18.511261 -5.673090 7.125000 0.000000 0.000000 7.231446 -10.417360 5.852753
1.140117 18.201501 -6.275313 2.513144 0.311580 2.389728 -3.813521 5.414032 6.396097 -19.235186 -5.623209 -6.287830 -1.269144 4.300420 18.754594 0.644454 -0.541871 2.963463 0.000121 -0.026845 -0.073630 2.972206 -2.926049 1.708446 11.924451 11.746834 -32.022842 -2.470668 -10.617627 31.437498 5.448146 -17.870388 7.747645 -0.032441 -1.116866 3.071095 -3.122854 -1.153072 6.414879 2.254155 -1.468248 1.995531 3.325381 -1.045290 -6.891775 -5.749000 -4.012358 -15.231177 4.209425 -4.443499 17.164119 0.155581 -1.788332 9.309946 -7.431553 1.952048 -1.117884 -75.731189 -6.395875 28.623712 13.186714 -22.592890 -2.973853 -0.954156 -1.508537 -6.372193 29.251138 25.332412 14.712457 -7.125000 0.000000 0.000000 0.420173 60.132883 0.153596 11.763090 -1.647503 -2.438259 74.451609 0.770934 8.637422 -8.673215 19.532792 -2.017727 1.095025 -0.578997 6.943488 -15.913301 18.206677 -5.580694 7.125000 0.000000 0.000000 7.215579 -10.749333 5.790540
1.132739 18.201728 -6.180924 2.553048 0.456118 2.416088 -3.840093 5.460591 6.473044 -19.193836 -5.616170 -5.846174 -1.308747 4.192410 18.487788 0.636708 -0.528232 2.976990 0.000177 0.059723 0.164206 3.069613 -2.917469 1.649167 11.597728 11.944980 -31.847134 -2.107485 -10.173244 29.920431 5.633678 -18.239587 7.415126 -0.061539 -1.564168 4.303334 -3.194988 -1.244750 6.454719 2.287465 -1.592111 1.990487 3.401944 -1.110341 -6.912639 -5.670900 -4.020930 -15.313808 4.064570 -4.445228 17.248026 0.093179 -1.796349 9.350819 -7.428473 1.941513 -1.115392 -75.677878 -6.544940 28.591840 13.264874 -22.700996 -3.006698 -0.939858 -1.522640 -6.459322 29.042688 25.673412 14.761292 -7.125000 0.000000 0.000000 0.037516 60.461548 0.012476 11.759143 -1.651266 -2.445752 74.438298 0.734121 8.826324 -8.744777 19.651514 -2.048577 1.093858 -0.557583 6.888241 -15.934122 17.947934 -5.506293 7.125000 0.000000 0.000000 7.193096 -11.032191 5.730212
1.125690 18.198784 -6.085742 2.668191 0.587947 2.448801 -3.869806 5.495153 6.535991 -19.243712 -5.648260 -5.447709 -1.348605 4.084035 18.223050 0.619677 -0.495706 3.008979 0.001962 0.221810 0.609574 3.162879 -2.906981 1.589767 11.177457 12.142709 -31.678292 -1.756946 -9.721227 28.393297 5.829231 -18.636887 7.109463 -0.076735 -1.786053 4.914772 -3.333199 -1.325960 6.489963 2.296990 -1.711401 1.957133 3.491826 -1.170340 -6.957378 -5.648902 -4.026264 -15.308907 3.981162 -4.446941 17.307958 0.061389 -1.802898 9.369140 -7.426059 1.931762 -1.112304 -75.622197 -6.665015 28.610212 13.303233 -22.750512 -3.022519 -0.933768 -1.510195 -6.564817 28.918973 25.375361 14.539345 -7.125000 0.000000 0.000000 -0.012417 60.094609 -0.007272 11.759743 -1.656542 -2.451843 74.415974 0.688776 8.919067 -8.756379 19.675302 -2.053664 1.093382 -0.556512 6.847805 -15.913288 17.957012 -5.501439 7.125000 0.000000 0.000000 7.207622 -11.025502 5.743054
